Prom 23: Vaughan Williams, Ireland, Delius & Walton

Vaughan Williams - Fantasia on a Theme by Thomas Tallis (16 mins)
Ireland - These Things Shall Be (22 mins)
Delius - The Walk to the Paradise Garden (10 mins)
Walton - Belshazzar's Feast (36 mins)

Jonathan Lemalu baritone, bass-baritone
London Brass
BBC Symphony Chorus
BBC National Chorus of Wales
BBC National Orchestra of Wales
Tadaaki Otaka conductor

Tadaaki Otaka, a notable enthusiast of British music, opens with Vaughan Williams's much loved classic before revisiting a BBC commission that has fallen into neglect in the half-century since its composer's death: Ireland's These Things Shall Be is a mini-oratorio with a utopian text.

The massed choirs and the commanding bass baritone of former BBC Radio 3 New Generation Artist Jonathan Lemalu return after the interval to animate Walton's brazen Old Testament tale, but first we hear from another anniversary composer, here at his most poignant.

Video
ID                                       : 1
Format                                   : AVC
Format/Info                              : Advanced Video Codec
Format profile                           : Main@L3.0
Format settings, CABAC                   : Yes
Format settings, ReFrames                : 4 frames
Codec ID                                 : avc1
Codec ID/Info                            : Advanced Video Coding
Duration                                 : 1h 39mn
Bit rate mode                            : Constant
Bit rate                                 : 1 404 Kbps
Width                                    : 832 pixels
Height                                   : 468 pixels
Display aspect ratio                     : 16:9
Frame rate mode                          : Constant
Frame rate                               : 25.000 fps
Standard                                 : PAL
Color space                              : YUV
Chroma subsampling                       : 4:2:0
Bit depth                                : 8 bits
Scan type                                : Progressive
Bits/(Pixel*Frame)                       : 0.144
Stream size                              : 996 MiB (93%)

Audio
ID                                       : 2
Format                                   : AAC
Format/Info                              : Advanced Audio Codec
Format profile                           : HE-AAC / LC
Codec ID                                 : 40
Duration                                 : 1h 39mn
Bit rate mode                            : Constant
Bit rate                                 : 96.0 Kbps
Channel(s)                               : 2 channels
Channel positions                        : Front: L R
Sampling rate                            : 48.0 KHz / 24.0 KHz
Compression mode                         : Lossy
Stream size                              : 67.3 MiB (6%)
